<svg width="136" height="57" viewBox="0 0 136 57" fill="none" xmlns="http://www.w3.org/2000/svg">
<ellipse cx="20.2338" cy="30.2025" rx="20.2338" ry="20.1351" fill="black" style="fill:black;fill-opacity:1;"/>
<path d="M8.99332 19.819H2.86523V48.9817L7.97197 53.0102V50.2954V25.8618L20.2281 38.6478L21.3423 37.6845L25.7063 33.043L28.1204 30.5033L29.7917 28.6642L34.3413 23.7599L35.5484 22.4463L45.019 11.8497L44.6476 11.2366L44.3691 10.8863L42.6049 7.3833L35.3627 15.5278L20.2281 31.6418L8.99332 19.819Z" fill="white" style="fill:white;fill-opacity:1;"/>
<path d="M10.7832 32.3413V39.4349L20.811 49.3309L33.16 35.7567V56.95H38.3596V47.9297L38.1739 23.2334L20.5324 42.3249L10.7832 32.3413Z" fill="white" style="fill:white;fill-opacity:1;"/>
<rect width="3.39214" height="5.5901" rx="1.69607" transform="matrix(0.724742 0.68902 -0.692552 0.721368 21.5762 18.29)" fill="white" style="fill:white;fill-opacity:1;"/>
<rect width="3.39214" height="5.5901" rx="1.69607" transform="matrix(0.724742 0.68902 -0.692552 0.721368 33.8848 1.00684)" fill="black" style="fill:black;fill-opacity:1;"/>
<rect width="3.39214" height="14.1786" rx="1.69607" transform="matrix(0.724742 0.68902 -0.692552 0.721368 29.7148 5.37402)" fill="black" style="fill:black;fill-opacity:1;"/>
<rect width="4.46494" height="10.2452" rx="2.23247" transform="matrix(0.724742 0.68902 -0.692552 0.721368 32.957 11.6626)" fill="black" style="fill:black;fill-opacity:1;"/>
<rect width="3.39214" height="18.6054" rx="1.69607" transform="matrix(0.724742 0.68902 -0.692552 0.721368 30.2539 0)" fill="white" style="fill:white;fill-opacity:1;"/>
<rect width="3.39214" height="18.6054" rx="1.69607" transform="matrix(0.724742 0.68902 -0.692552 0.721368 35.6484 4.02686)" fill="white" style="fill:white;fill-opacity:1;"/>
<path d="M135.603 24.606V37.4215H133.381V24.606H135.603Z" fill="black" style="fill:black;fill-opacity:1;"/>
<path d="M129.029 35.5026V31.3392C129.029 30.8831 128.909 30.5215 128.669 30.2545C128.434 29.982 128.062 29.8457 127.554 29.8457C127.258 29.8457 126.998 29.8957 126.774 29.9959C126.556 30.096 126.388 30.2378 126.271 30.4214C126.154 30.5994 126.095 30.8052 126.095 31.0388H123.873C123.873 30.5382 124.03 30.0765 124.343 29.6538C124.656 29.2255 125.097 28.8806 125.667 28.6192C126.237 28.3578 126.908 28.2271 127.68 28.2271C128.367 28.2271 128.979 28.3439 129.516 28.5775C130.058 28.8055 130.483 29.1504 130.79 29.6121C131.103 30.0737 131.26 30.655 131.26 31.3558V35.294C131.26 35.7445 131.288 36.1311 131.344 36.4537C131.405 36.7708 131.494 37.0461 131.612 37.2797V37.4215H129.356C129.25 37.1935 129.169 36.9043 129.113 36.5538C129.057 36.1978 129.029 35.8474 129.029 35.5026ZM129.34 31.9232L129.356 33.2331H127.956C127.258 33.2331 126.738 33.3694 126.397 33.642C126.061 33.9089 125.894 34.2677 125.894 34.7183C125.894 35.052 126.008 35.3329 126.237 35.561C126.472 35.7834 126.794 35.8947 127.202 35.8947C127.593 35.8947 127.934 35.8168 128.225 35.6611C128.515 35.4998 128.742 35.3051 128.904 35.077C129.066 34.849 129.152 34.6321 129.164 34.4262L129.801 35.3774C129.723 35.6055 129.605 35.8474 129.449 36.1033C129.292 36.3591 129.091 36.5983 128.845 36.8208C128.599 37.0433 128.303 37.2269 127.956 37.3715C127.61 37.5161 127.207 37.5884 126.749 37.5884C126.162 37.5884 125.637 37.4716 125.173 37.238C124.709 37.0044 124.343 36.6845 124.074 36.2785C123.806 35.8724 123.672 35.4108 123.672 34.8935C123.672 33.9479 124.027 33.2164 124.737 32.6991C125.452 32.1819 126.489 31.9232 127.847 31.9232H129.34Z" fill="black" style="fill:black;fill-opacity:1;"/>
<path d="M122.558 28.3937V29.9789H117.359V28.3937H122.558ZM118.751 26.1743H120.973V34.8181C120.973 35.0851 121.009 35.2909 121.082 35.4356C121.155 35.5802 121.264 35.6775 121.409 35.7276C121.554 35.7776 121.728 35.8027 121.929 35.8027C122.074 35.8027 122.208 35.7943 122.331 35.7776C122.454 35.761 122.558 35.7443 122.642 35.7276L122.65 37.3796C122.465 37.4408 122.256 37.4908 122.021 37.5298C121.792 37.5687 121.532 37.5882 121.241 37.5882C120.744 37.5882 120.308 37.5047 119.933 37.3379C119.559 37.1654 119.268 36.8901 119.061 36.5119C118.855 36.1281 118.751 35.6219 118.751 34.9934V26.1743Z" fill="black" style="fill:black;fill-opacity:1;"/>
<path d="M113.099 37.5884C112.183 37.5884 111.392 37.3965 110.727 37.0127C110.067 36.6234 109.558 36.0977 109.201 35.4358C108.843 34.7739 108.664 34.0341 108.664 33.2164V32.8827C108.664 31.9538 108.837 31.1417 109.184 30.4464C109.536 29.7456 110.028 29.2005 110.66 28.8111C111.291 28.4217 112.021 28.2271 112.848 28.2271C113.709 28.2271 114.43 28.4134 115.011 28.7861C115.598 29.1587 116.04 29.676 116.336 30.3379C116.632 30.9999 116.78 31.7702 116.78 32.6491V33.5752H109.67V32.0567H114.6V31.8898C114.589 31.5394 114.522 31.2196 114.399 30.9303C114.276 30.6355 114.086 30.4019 113.829 30.2295C113.572 30.0515 113.239 29.9625 112.831 29.9625C112.395 29.9625 112.032 30.0849 111.741 30.3296C111.456 30.5743 111.244 30.9164 111.104 31.3558C110.964 31.7953 110.894 32.3042 110.894 32.8827V33.2164C110.894 33.7171 110.987 34.1676 111.171 34.5681C111.355 34.963 111.624 35.2773 111.976 35.5109C112.328 35.7389 112.747 35.853 113.234 35.853C113.697 35.853 114.117 35.764 114.491 35.586C114.871 35.4024 115.201 35.1327 115.481 34.7767L116.596 35.9281C116.311 36.3452 115.877 36.7263 115.296 37.0711C114.72 37.416 113.988 37.5884 113.099 37.5884Z" fill="black" style="fill:black;fill-opacity:1;"/>
<path d="M95.1741 25.2734H97.1696L100.507 34.4179L103.835 25.2734H105.839L101.303 37.4215H99.7016L95.1741 25.2734ZM94.168 25.2734H96.1215L96.4737 33.6753V37.4215H94.168V25.2734ZM104.883 25.2734H106.845V37.4215H104.539V33.6753L104.883 25.2734Z" fill="black" style="fill:black;fill-opacity:1;"/>
<path d="M85.7584 34.9519C85.7584 34.7628 85.7081 34.5931 85.6075 34.4429C85.5069 34.2927 85.3169 34.1565 85.0374 34.0341C84.7635 33.9062 84.361 33.7866 83.83 33.6753C83.204 33.5418 82.6478 33.3638 82.1615 33.1414C81.6752 32.9133 81.2924 32.6241 81.0129 32.2736C80.739 31.9232 80.602 31.4921 80.602 30.9804C80.602 30.4798 80.7446 30.0237 81.0296 29.6121C81.3147 29.1949 81.7228 28.8612 82.2538 28.6109C82.7904 28.355 83.4276 28.2271 84.1654 28.2271C84.9368 28.2271 85.5991 28.3522 86.1525 28.6025C86.7115 28.8528 87.1391 29.1977 87.4353 29.6371C87.7316 30.071 87.8797 30.5604 87.8797 31.1055H85.6662C85.6662 30.7496 85.5404 30.4436 85.2889 30.1878C85.043 29.9319 84.6657 29.804 84.157 29.804C83.8496 29.804 83.5897 29.854 83.3773 29.9541C83.1705 30.0543 83.0139 30.185 82.9077 30.3463C82.8015 30.5076 82.7484 30.6856 82.7484 30.8803C82.7484 31.075 82.8015 31.2418 82.9077 31.3809C83.0195 31.5199 83.204 31.6451 83.4611 31.7563C83.7182 31.862 84.076 31.9649 84.5343 32.065C85.2107 32.1985 85.8004 32.3765 86.3034 32.599C86.8121 32.816 87.2089 33.1052 87.494 33.4667C87.7791 33.8283 87.9216 34.29 87.9216 34.8518C87.9216 35.3802 87.7679 35.853 87.4605 36.2702C87.153 36.6818 86.717 37.0044 86.1525 37.238C85.5935 37.4716 84.934 37.5884 84.1738 37.5884C83.3409 37.5884 82.6367 37.441 82.0609 37.1462C81.4852 36.8458 81.0492 36.4676 80.753 36.0115C80.4567 35.5498 80.3086 35.0715 80.3086 34.5764H82.4298C82.4466 34.9269 82.5416 35.2077 82.7149 35.4191C82.8882 35.6305 83.1062 35.7834 83.3689 35.878C83.6372 35.967 83.9195 36.0115 84.2157 36.0115C84.5511 36.0115 84.8334 35.967 85.0625 35.878C85.2917 35.7834 85.465 35.6583 85.5824 35.5026C85.6997 35.3412 85.7584 35.1577 85.7584 34.9519Z" fill="black" style="fill:black;fill-opacity:1;"/>
<path d="M78.656 28.3939V37.4215H76.4341V28.3939H78.656ZM76.2832 26.0327C76.2832 25.7045 76.395 25.432 76.6186 25.215C76.8478 24.9981 77.1552 24.8896 77.5409 24.8896C77.9265 24.8896 78.2312 24.9981 78.4548 25.215C78.6839 25.432 78.7985 25.7045 78.7985 26.0327C78.7985 26.3553 78.6839 26.6251 78.4548 26.842C78.2312 27.0589 77.9265 27.1674 77.5409 27.1674C77.1552 27.1674 76.8478 27.0589 76.6186 26.842C76.395 26.6251 76.2832 26.3553 76.2832 26.0327Z" fill="black" style="fill:black;fill-opacity:1;"/>
<path d="M70.7148 35.7525L72.8277 28.3936H75.1417L72.0311 37.4212H70.6226L70.7148 35.7525ZM69.1721 28.3936L71.3101 35.7692L71.3856 37.4212H69.9686L66.8496 28.3936H69.1721Z" fill="black" style="fill:black;fill-opacity:1;"/>
<path d="M63.6154 35.5026V31.3392C63.6154 30.8831 63.4952 30.5215 63.2549 30.2545C63.0201 29.982 62.6484 29.8457 62.1398 29.8457C61.8435 29.8457 61.5836 29.8957 61.36 29.9959C61.142 30.096 60.9743 30.2378 60.857 30.4214C60.7396 30.5994 60.6809 30.8052 60.6809 31.0388H58.459C58.459 30.5382 58.6155 30.0765 58.9286 29.6538C59.2416 29.2255 59.6832 28.8806 60.2533 28.6192C60.8234 28.3578 61.4942 28.2271 62.2655 28.2271C62.9531 28.2271 63.5651 28.3439 64.1017 28.5775C64.6439 28.8055 65.0687 29.1504 65.3761 29.6121C65.6892 30.0737 65.8457 30.655 65.8457 31.3558V35.294C65.8457 35.7445 65.8736 36.1311 65.9295 36.4537C65.991 36.7708 66.0804 37.0461 66.1978 37.2797V37.4215H63.9424C63.8362 37.1935 63.7552 36.9043 63.6993 36.5538C63.6434 36.1978 63.6154 35.8474 63.6154 35.5026ZM63.9256 31.9232L63.9424 33.2331H62.5422C61.8435 33.2331 61.3237 33.3694 60.9827 33.642C60.6474 33.9089 60.4797 34.2677 60.4797 34.7183C60.4797 35.052 60.5943 35.3329 60.8234 35.561C61.0582 35.7834 61.3796 35.8947 61.7876 35.8947C62.1789 35.8947 62.5199 35.8168 62.8105 35.6611C63.1012 35.4998 63.3276 35.3051 63.4897 35.077C63.6518 34.849 63.7384 34.6321 63.7496 34.4262L64.3868 35.3774C64.3085 35.6055 64.1911 35.8474 64.0346 36.1033C63.8781 36.3591 63.6769 36.5983 63.431 36.8208C63.185 37.0433 62.8888 37.2269 62.5422 37.3715C62.1957 37.5161 61.7932 37.5884 61.3349 37.5884C60.748 37.5884 60.2225 37.4716 59.7586 37.238C59.2947 37.0044 58.9286 36.6845 58.6603 36.2785C58.392 35.8724 58.2578 35.4108 58.2578 34.8935C58.2578 33.9479 58.6128 33.2164 59.3226 32.6991C60.0381 32.1819 61.075 31.9232 62.4332 31.9232H63.9256Z" fill="black" style="fill:black;fill-opacity:1;"/>
<path d="M56.4386 25.2734V37.4215H54.1245L48.9346 28.9946V37.4215H46.6289V25.2734H48.9346L54.1413 33.7087V25.2734H56.4386Z" fill="black" style="fill:black;fill-opacity:1;"/>
</svg>
